<svg xmlns="http://www.w3.org/2000/svg" width="1200" height="758" viewBox="0 0 1200 758" role="group" aria-label="Reports" style="font-family:Segoe UI,Arial,sans-serif"><title>Reports</title><desc>Illustrative report directory using the current server-cursor model. The review queue covers one directory page.</desc><style>svg a{cursor:pointer}svg a:hover rect{stroke:#345EAD;stroke-width:2}svg a:focus{outline:none}svg a:focus-visible rect{stroke:#345EAD;stroke-width:4}svg text{pointer-events:none}</style><rect x="0" y="0" width="1200" height="758" rx="0" fill="#FAF9FD" stroke="#D4DAE5"/><rect x="0" y="0" width="84" height="758" rx="0" fill="#F3F4FA" stroke="#F3F4FA"/><rect x="18" y="20" width="48" height="48" rx="16" fill="#345EAD" stroke="#345EAD"/><text x="29" y="50" fill="#FFFFFF" font-size="19" font-weight="600"><tspan x="29" dy="0">AR</tspan></text><a href="../atlas.html#screen=pull-requests" aria-label="Review" tabindex="0"><title>Review</title><rect x="12" y="102" width="60" height="62" rx="18" fill="#DFE6F4" stroke="#F3F4FA"/><text x="35" y="127" fill="#173D79" font-size="19" font-weight="600"><tspan x="35" dy="0">R</tspan></text><text x="24" y="150" fill="#505966" font-size="11" font-weight="400"><tspan x="24" dy="0">Review</tspan></text></a><a href="../atlas.html#screen=tasks" aria-label="Tasks" tabindex="0"><title>Tasks</title><rect x="12" y="187" width="60" height="62" rx="18" fill="#F3F4FA" stroke="#F3F4FA"/><text x="35" y="212" fill="#173D79" font-size="19" font-weight="600"><tspan x="35" dy="0">T</tspan></text><text x="27" y="235" fill="#505966" font-size="11" font-weight="400"><tspan x="27" dy="0">Tasks</tspan></text></a><a href="../atlas.html#screen=comments" aria-label="Activity" tabindex="0"><title>Activity</title><rect x="12" y="272" width="60" height="62" rx="18" fill="#F3F4FA" stroke="#F3F4FA"/><text x="35" y="297" fill="#173D79" font-size="19" font-weight="600"><tspan x="35" dy="0">A</tspan></text><text x="18" y="320" fill="#505966" font-size="11" font-weight="400"><tspan x="18" dy="0">Activity</tspan></text></a><a href="../atlas.html#screen=repositories" aria-label="Workspace" tabindex="0"><title>Workspace</title><rect x="12" y="357" width="60" height="62" rx="18" fill="#F3F4FA" stroke="#F3F4FA"/><text x="35" y="382" fill="#173D79" font-size="19" font-weight="600"><tspan x="35" dy="0">W</tspan></text><text x="15" y="405" fill="#505966" font-size="11" font-weight="400"><tspan x="15" dy="0">Workspace</tspan></text></a><rect x="84" y="0" width="1116" height="76" rx="0" fill="#FFFFFF" stroke="#D4DAE5"/><text x="116" y="32" fill="#1B1D24" font-size="19" font-weight="600"><tspan x="116" dy="0">Agentic Review</tspan></text><text x="116" y="55" fill="#505966" font-size="13" font-weight="400"><tspan x="116" dy="0">Review workspace</tspan></text><rect x="455" y="17" width="354" height="42" rx="22" fill="#F3F4FA" stroke="#D4DAE5"/><text x="473" y="43" fill="#505966" font-size="14" font-weight="400"><tspan x="473" dy="0">Repository / Illustrative scope</tspan></text><text x="886" y="43" fill="#505966" font-size="14" font-weight="400"><tspan x="886" dy="0">Search</tspan></text><a href="../atlas.html#screen=account" aria-label="My account" tabindex="0"><title>My account</title><rect x="1098" y="17" width="46" height="42" rx="21" fill="#DCE6FF" stroke="#DCE6FF"/><text x="1110" y="43" fill="#173D79" font-size="15" font-weight="600"><tspan x="1110" dy="0">RV</tspan></text></a><text x="116" y="114" fill="#505966" font-size="12" font-weight="600"><tspan x="116" dy="0">REVIEW / reports</tspan></text><text x="116" y="155" fill="#1B1D24" font-size="28" font-weight="400"><tspan x="116" dy="0">Reports</tspan></text><rect x="116" y="172" width="166.6" height="30" rx="15" fill="#DCE6FF" stroke="#DCE6FF"/><text x="130" y="192" fill="#173D79" font-size="13" font-weight="600"><tspan x="130" dy="0">Current page queue</tspan></text><rect x="116" y="222" width="1052" height="44" rx="8" fill="#EDF0F7" stroke="#D4DAE5"/><text x="132" y="250" fill="#505966" font-size="13" font-weight="600"><tspan x="132" dy="0">Source</tspan></text><text x="542.28" y="250" fill="#505966" font-size="13" font-weight="600"><tspan x="542.28" dy="0">Saved assessment</tspan></text><text x="863.14" y="250" fill="#505966" font-size="13" font-weight="600"><tspan x="863.14" dy="0">Delivery</tspan></text><a href="../atlas.html#screen=report-detail" aria-label="Open PR review example" tabindex="0"><title>Open PR review example</title><rect x="116" y="266" width="1052" height="66" rx="0" fill="#FFFFFF" stroke="#D4DAE5"/><text x="132" y="292" fill="#173D79" font-size="15" font-weight="600"><tspan x="132" dy="0">PR review example</tspan></text><text x="542.28" y="292" fill="#505966" font-size="15" font-weight="400"><tspan x="542.28" dy="0">Changes needed</tspan></text><text x="863.14" y="292" fill="#505966" font-size="15" font-weight="400"><tspan x="863.14" dy="0">Complete / Final</tspan></text></a><a href="../atlas.html#screen=bug-detail" aria-label="Open Bug investigation example" tabindex="0"><title>Open Bug investigation example</title><rect x="116" y="332" width="1052" height="66" rx="0" fill="#FFFFFF" stroke="#D4DAE5"/><text x="132" y="358" fill="#173D79" font-size="15" font-weight="600"><tspan x="132" dy="0">Bug investigation example</tspan></text><text x="542.28" y="358" fill="#505966" font-size="15" font-weight="400"><tspan x="542.28" dy="0">Needs verification</tspan></text><text x="863.14" y="358" fill="#505966" font-size="15" font-weight="400"><tspan x="863.14" dy="0">Complete / Final</tspan></text></a><a href="../atlas.html#screen=task-interrupted" aria-label="Open Interrupted review example" tabindex="0"><title>Open Interrupted review example</title><rect x="116" y="398" width="1052" height="66" rx="0" fill="#FFFFFF" stroke="#D4DAE5"/><text x="132" y="424" fill="#173D79" font-size="15" font-weight="600"><tspan x="132" dy="0">Interrupted review example</tspan></text><text x="542.28" y="424" fill="#505966" font-size="15" font-weight="400"><tspan x="542.28" dy="0">No final conclusion</tspan></text><text x="863.14" y="424" fill="#505966" font-size="15" font-weight="400"><tspan x="863.14" dy="0">Partial / Checkpoint</tspan></text></a><rect x="116" y="488" width="1052" height="138" rx="12" fill="#FFFFFF" stroke="#D4DAE5"/><rect x="116" y="488" width="5" height="138" rx="2" fill="#EDF0F7" stroke="#EDF0F7"/><text x="136" y="518" fill="#1B1D24" font-size="19" font-weight="600"><tspan x="136" dy="0">Directory filters</tspan></text><text x="136" y="548" fill="#505966" font-size="15" font-weight="400"><tspan x="136" dy="0">Search; task kind; completeness; delivery; repository scope.</tspan></text><text x="136" y="586" fill="#505966" font-size="15" font-weight="400"><tspan x="136" dy="0">Next cursor changes the directory page, not the report contents.</tspan></text><a href="../atlas.html#screen=report-detail" aria-label="Read report - view prototype state" tabindex="0"><title>Read report - view prototype state</title><rect x="116" y="650" width="130" height="46" rx="23" fill="#345EAD" stroke="#345EAD"/><text x="136" y="679" fill="#FFFFFF" font-size="15" font-weight="600"><tspan x="136" dy="0">Read report</tspan></text></a><a href="../atlas.html#screen=task-interrupted" aria-label="Inspect checkpoint - view prototype state" tabindex="0"><title>Inspect checkpoint - view prototype state</title><rect x="258" y="650" width="184.0" height="46" rx="23" fill="#FFFFFF" stroke="#737D8C"/><text x="278" y="679" fill="#345EAD" font-size="15" font-weight="600"><tspan x="278" dy="0">Inspect checkpoint</tspan></text></a><text x="116" y="730" fill="#505966" font-size="11" font-weight="400"><tspan x="116" dy="0">SOURCE-DERIVED WIREFRAME / ILLUSTRATIVE CONTENT / LINKED CONTROLS OPEN ANOTHER REVIEW STATE</tspan></text></svg>